<?xml version="1.0" standalone="no"?>
<!DOCTYPE svg PUBLIC "-//W3C//DTD SVG 20010904//EN"
 "http://www.w3.org/TR/2001/REC-SVG-20010904/DTD/svg10.dtd">
<svg version="1.0" xmlns="http://www.w3.org/2000/svg"
 width="500.000000pt" height="500.000000pt" viewBox="0 0 500.000000 500.000000"
 preserveAspectRatio="xMidYMid meet">
<metadata>
Created by potrace 1.14, written by Peter Selinger 2001-2017
</metadata>
<g transform="translate(0.000000,500.000000) scale(0.100000,-0.100000)"
fill="#000000" stroke="none">
<path d="M0 4148 c0 -750 3 -929 15 -806 2 18 4 39 4 46 1 6 7 12 15 12 9 0
16 17 21 50 6 44 10 50 31 50 17 0 25 -7 30 -25 6 -24 43 -55 45 -38 1 4 2 38
3 75 1 56 -1 68 -16 71 -10 3 -27 -4 -39 -14 -28 -24 -41 -24 -64 1 -18 20
-18 21 2 37 18 14 19 21 10 46 -7 22 -7 35 2 49 10 16 9 23 -5 39 -9 10 -23
19 -31 19 -22 0 -15 46 21 122 32 68 64 108 85 108 6 0 13 9 16 20 7 22 83 70
114 73 12 1 21 4 21 7 0 3 26 5 58 5 31 -1 60 4 64 10 5 6 13 2 22 -10 9 -11
16 -15 16 -8 0 6 6 10 13 9 6 -2 31 -7 55 -11 46 -8 55 -17 59 -55 l2 -25 -10
25 c-10 23 -11 24 -21 7 -8 -15 -5 -24 10 -40 29 -31 13 -57 -34 -57 -32 0
-34 -2 -24 -21 9 -15 15 -18 24 -10 17 15 24 6 20 -28 -5 -44 -22 -81 -38 -81
-17 0 -28 -24 -16 -36 4 -5 11 -28 15 -50 5 -33 3 -43 -10 -48 -11 -4 -15 -12
-11 -22 4 -9 1 -32 -6 -52 -10 -28 -10 -36 0 -39 20 -7 14 -33 -9 -33 -15 0
-19 -5 -15 -15 3 -8 1 -15 -4 -15 -17 0 -11 -26 10 -45 22 -20 17 -43 -6 -24
-11 9 -14 8 -14 -4 0 -8 -10 -22 -22 -30 -23 -16 -23 -16 -2 -16 23 -1 68 -37
76 -62 4 -9 -11 -35 -37 -65 -33 -36 -42 -43 -38 -26 5 19 2 23 -13 20 -13 -2
-22 6 -29 30 -6 18 -14 30 -17 26 -9 -8 -21 34 -13 46 10 16 -12 12 -29 -6
-23 -23 -20 -61 7 -75 34 -18 97 -86 98 -106 1 -18 2 -24 15 -89 5 -25 1 -37
-19 -58 -14 -15 -23 -34 -20 -42 3 -8 1 -14 -5 -14 -15 0 -34 -167 -20 -176 4
-3 8 -14 8 -25 0 -17 -6 -20 -37 -17 -21 2 -39 9 -39 16 -1 6 -2 20 -3 29 -2
25 -46 -25 -70 -78 -17 -36 -17 -47 -6 -92 23 -93 17 -105 -62 -126 -29 -8
-51 -23 -69 -47 -23 -30 -26 -41 -20 -80 8 -63 33 -101 77 -118 42 -17 55 -31
38 -42 -8 -5 -9 -3 -4 6 6 10 4 12 -8 7 -9 -3 -38 -9 -65 -13 l-48 -6 -12 40
c-7 22 -19 43 -27 46 -13 5 -15 -20 -15 -181 0 -158 2 -184 14 -174 12 10 14
6 12 -21 -2 -18 5 -49 16 -68 10 -19 18 -46 19 -60 0 -20 2 -21 7 -7 7 15 12
13 41 -17 27 -28 31 -37 22 -53 -6 -10 -11 -13 -11 -8 0 6 -4 5 -8 -2 -4 -6
-13 -13 -21 -15 -22 -5 -66 -50 -79 -81 -16 -36 -15 -87 0 -87 21 0 98 -32 98
-41 0 -5 -3 -8 -8 -7 -4 1 -16 -1 -27 -4 -11 -3 -32 -9 -47 -12 -25 -6 -28
-11 -28 -44 0 -29 5 -39 23 -47 17 -8 22 -18 22 -45 0 -21 -5 -35 -12 -36 -7
-1 -17 -2 -23 -3 -13 -1 -12 -281 1 -281 5 0 9 -5 9 -11 0 -5 -4 -7 -10 -4 -6
4 -10 -8 -10 -29 0 -41 16 -48 29 -12 5 13 19 26 30 29 12 3 19 1 15 -4 -3 -5
4 -9 14 -9 11 0 22 7 26 15 9 24 33 17 45 -14 18 -42 -7 -98 -51 -113 -18 -7
-35 -11 -38 -9 -7 3 -18 -39 -19 -76 -1 -23 5 -35 19 -43 23 -13 26 -38 6 -66
-14 -18 -15 -18 -45 -1 l-31 18 0 -325 0 -326 950 0 c943 0 950 0 950 20 0 11
5 20 10 20 6 0 10 9 10 20 0 20 32 44 44 33 3 -3 25 -10 48 -14 148 -29 263
-54 303 -67 11 -4 617 -8 1348 -9 l1327 -3 -2 2275 c-3 1903 -5 2277 -17 2284
-9 6 -10 11 -2 15 21 13 12 56 -14 68 -31 14 -27 34 5 30 21 -3 22 -1 17 32
-4 24 -18 46 -43 68 -38 34 -73 52 -82 43 -7 -7 29 -45 42 -45 7 0 12 -9 13
-21 2 -16 -1 -18 -11 -10 -15 13 -27 4 -20 -14 9 -23 -12 -25 -37 -2 -13 12
-32 27 -44 32 -11 6 -21 19 -23 29 -5 26 40 17 53 -11 11 -25 45 -32 45 -10 0
23 -40 52 -66 49 -36 -5 -102 38 -164 107 -51 57 -80 75 -80 50 0 -6 -15 -1
-34 10 -33 21 -37 21 -1070 21 -910 0 -1037 -2 -1042 -15 -4 -8 -10 -12 -15
-9 -5 3 -9 0 -9 -5 0 -20 -32 -11 -37 9 -5 18 -14 20 -90 20 l-84 0 21 -30
c12 -16 18 -30 14 -30 -4 0 -20 14 -36 30 l-28 30 -1075 0 -1075 0 0 -852z
m4486 821 c3 -5 10 -9 15 -9 6 0 7 4 4 10 -3 6 1 7 9 4 9 -3 16 -10 16 -14 0
-4 11 -11 25 -14 40 -10 30 -31 -15 -32 -33 -1 -40 2 -40 17 0 10 -13 25 -30
34 -16 9 -30 17 -30 19 0 7 40 -6 46 -15z m-2156 -9 c0 -5 -7 -7 -15 -4 -8 4
-15 8 -15 10 0 2 7 4 15 4 8 0 15 -4 15 -10z m1623 -77 c-3 -7 -6 -13 -8 -13
-2 0 -5 6 -8 13 -3 8 1 14 8 14 7 0 11 -6 8 -14z m-205 -73 c7 -11 11 -20 9
-20 -2 0 -12 9 -22 20 -10 11 -14 20 -9 20 5 0 15 -9 22 -20z m243 -7 c13 -16
12 -17 -3 -4 -17 13 -22 21 -14 21 2 0 10 -8 17 -17z m-2821 -23 c8 -5 11 -10
5 -10 -5 0 -17 5 -25 10 -8 5 -10 10 -5 10 6 0 17 -5 25 -10z m2773 -166 c-7
-18 -12 -13 -18 16 -3 18 -2 20 10 10 8 -6 11 -18 8 -26z m54 -241 c0 -9 -4
-10 -14 -2 -7 6 -13 12 -13 14 0 1 6 2 13 2 8 0 14 -6 14 -14z m238 -1 c-3 -3
-11 0 -18 7 -9 10 -8 11 6 5 10 -3 15 -9 12 -12z m69 -44 c-5 -8 -32 0 -51 15
-24 18 -2 26 26 9 16 -9 27 -20 25 -24z m-3764 -223 c0 -8 -4 -15 -10 -15 -5
0 -10 7 -10 15 0 8 5 15 10 15 6 0 10 -7 10 -15z m1611 -2 c12 -16 12 -17 -2
-6 -9 7 -20 9 -24 5 -5 -4 -5 -1 -1 6 9 16 11 15 27 -5z m49 -13 c1 8 6 4 11
-9 7 -19 6 -28 -6 -40 -13 -14 -16 -13 -29 4 -10 14 -11 25 -4 39 8 15 12 16
19 5 7 -12 9 -11 9 1z m133 1 c4 -1 8 -13 8 -28 1 -17 3 -21 6 -10 2 9 12 17
21 17 15 0 15 -2 2 -10 -13 -8 -12 -10 5 -11 11 -1 26 -2 33 -2 6 1 12 -3 12
-8 0 -5 5 -9 11 -9 5 0 7 6 4 13 -4 6 2 3 12 -9 10 -11 24 -19 30 -17 6 2 14
-1 18 -7 5 -8 11 -7 23 2 9 7 13 8 10 3 -4 -6 2 -11 12 -11 10 0 16 5 13 10
-4 5 1 7 9 3 9 -3 20 -1 26 5 8 8 15 8 25 0 10 -9 17 -8 27 1 10 9 11 9 6 0
-4 -7 -2 -21 4 -30 11 -17 11 -17 6 0 -6 18 -2 20 31 11 12 -3 20 -11 17 -18
-3 -7 4 -20 15 -30 17 -15 18 -22 9 -40 -10 -19 -10 -20 5 -7 13 10 20 11 31
2 9 -8 28 -10 50 -5 21 3 36 2 36 -3 0 -18 -13 -23 -29 -10 -14 10 -14 10 -3
-5 15 -18 40 -18 52 1 6 10 9 10 15 1 4 -6 -1 -17 -11 -25 -18 -13 -18 -14 4
-8 18 4 21 2 15 -12 -4 -13 -3 -16 6 -11 6 4 19 2 28 -6 12 -9 15 -9 9 0 -4 7
-2 12 6 12 8 0 14 -9 15 -20 1 -13 -3 -18 -10 -14 -7 3 -3 -2 7 -10 18 -14 15
-21 -7 -17 -5 1 -6 -3 -3 -8 8 -13 42 -6 38 9 -1 6 2 9 8 5 18 -11 11 -35 -12
-45 -16 -6 -18 -9 -6 -9 9 -1 23 -4 32 -7 11 -4 16 -1 16 11 0 32 16 6 18 -30
2 -26 -1 -35 -9 -29 -8 4 -9 3 -5 -4 4 -7 13 -12 19 -12 7 0 23 -12 36 -25 22
-24 42 -33 40 -17 -4 21 3 31 17 25 9 -3 11 -9 6 -12 -18 -12 -9 -38 12 -37
14 1 21 -5 20 -16 -1 -10 3 -16 9 -15 6 1 12 -4 13 -10 1 -7 2 -18 3 -24 0 -5
6 -7 13 -3 7 4 8 3 4 -5 -4 -6 -13 -8 -19 -4 -18 11 -38 12 -31 2 3 -5 10 -7
15 -4 14 9 11 -5 -5 -21 -9 -9 -17 -10 -21 -4 -4 6 -12 5 -21 -5 -11 -10 -28
-13 -64 -9 -39 4 -51 2 -56 -10 -3 -8 -12 -12 -20 -9 -12 4 -12 8 3 20 17 13
16 13 -4 4 -12 -6 -36 -11 -53 -11 -18 0 -29 -4 -25 -10 8 -13 -8 -13 -22 1
-8 8 -23 4 -54 -12 -24 -13 -48 -22 -54 -20 -29 9 -55 11 -53 4 2 -5 -1 -9 -5
-10 -5 -1 -17 -12 -28 -24 l-19 -22 -1 24 c-1 20 -3 18 -16 -13 -15 -36 -43
-59 -43 -36 0 7 -6 4 -13 -6 -7 -9 -22 -18 -34 -19 -22 -1 -53 -47 -32 -47 5
0 9 -8 7 -17 -2 -11 2 -17 10 -15 8 1 12 -3 9 -10 -2 -7 -9 -12 -14 -11 -5 1
-10 -4 -10 -12 0 -8 4 -12 8 -10 10 7 30 -20 32 -44 1 -12 8 -21 17 -22 10 0
8 -4 -7 -11 -19 -9 -28 -25 -38 -66 -2 -6 1 -9 7 -6 6 4 8 -1 3 -15 -7 -23 4
-28 24 -8 11 10 12 9 6 -2 -5 -9 -4 -12 3 -7 6 3 17 0 24 -8 10 -10 19 -11 32
-4 16 9 16 8 6 -12 -17 -31 -7 -34 18 -6 11 14 16 27 11 30 -5 2 -4 3 2 2 7
-1 13 -12 14 -25 2 -24 19 -40 45 -41 8 -1 5 -5 -8 -11 -13 -5 -27 -7 -31 -5
-12 8 -7 -39 5 -51 7 -7 21 -13 31 -14 16 0 16 -1 -2 -9 -19 -8 -19 -9 2 -9
12 -1 25 4 28 9 9 14 46 3 64 -19 13 -15 13 -14 7 3 -5 14 -2 17 10 12 8 -3
20 -6 25 -6 6 0 7 -5 3 -11 -4 -8 0 -8 15 0 14 8 21 8 21 1 0 -7 6 -8 19 -1
10 6 21 8 24 4 9 -8 96 -9 90 0 -2 4 2 7 9 8 48 2 91 10 106 19 16 11 16 11 0
6 -10 -3 -20 -1 -23 4 -4 6 5 11 19 11 14 1 31 3 36 4 6 1 19 3 31 4 11 0 18
5 15 9 -3 5 8 8 25 7 20 -1 33 4 40 17 11 20 44 25 36 5 -3 -9 4 -12 23 -11
15 1 34 -2 41 -7 8 -5 9 -9 3 -9 -21 0 -10 -29 13 -35 13 -3 21 -10 18 -15 -4
-6 1 -13 9 -16 9 -3 13 -11 9 -17 -12 -19 -10 -45 2 -41 7 3 10 -7 7 -30 -2
-18 1 -37 7 -40 6 -4 11 -13 11 -19 0 -7 -4 -6 -10 3 -8 12 -10 10 -9 -10 0
-14 -2 -45 -5 -70 -4 -30 -3 -38 3 -25 8 19 9 18 13 -5 2 -14 -3 -35 -10 -47
-8 -13 -12 -38 -10 -58 3 -25 0 -35 -10 -35 -12 0 -12 -3 -2 -15 9 -10 9 -15
1 -15 -6 0 -11 -10 -11 -22 0 -22 -20 -64 -20 -44 0 6 -6 1 -14 -9 -8 -11 -20
-16 -29 -12 -9 3 -19 2 -22 -4 -4 -5 -11 -7 -16 -4 -5 4 -9 -6 -9 -21 0 -26 1
-26 18 -11 10 10 23 17 28 17 5 0 -2 -9 -16 -20 -14 -11 -19 -20 -12 -20 17 0
15 -17 -3 -17 -8 0 -15 6 -15 14 0 7 -7 13 -16 13 -8 0 -12 5 -9 10 5 8 -31
15 -57 11 -5 0 -8 5 -8 11 0 10 -2 10 -9 0 -6 -10 -10 -5 -14 16 -4 21 -13 31
-31 34 -14 3 -24 1 -23 -5 1 -5 -4 -12 -11 -14 -8 -3 -10 1 -6 11 6 14 -5 21
-28 17 -5 0 -8 4 -8 10 0 5 -6 7 -12 3 -10 -6 -10 -4 0 8 9 11 10 18 2 23 -5
3 -10 2 -10 -3 0 -5 -11 -7 -25 -4 -14 2 -23 7 -21 11 3 4 -4 13 -16 20 -16
10 -19 10 -13 -1 3 -7 -1 -4 -10 7 -9 11 -19 19 -23 19 -13 -3 -51 33 -44 41
4 5 -1 5 -10 2 -10 -4 -18 -2 -18 4 0 6 -4 8 -10 4 -8 -5 -48 12 -60 26 -3 3
-16 8 -30 11 -14 3 -33 9 -42 13 -11 4 -18 3 -18 -5 0 -6 5 -8 10 -5 6 3 10 1
10 -5 0 -6 9 -21 20 -33 11 -12 18 -27 16 -34 -3 -7 0 -13 7 -13 7 0 4 -5 -5
-11 -10 -5 -18 -21 -18 -35 0 -42 -32 -59 -113 -60 -52 -1 -85 -7 -118 -23
-42 -20 -113 -81 -95 -81 5 0 3 -6 -3 -14 -15 -18 2 -17 36 2 12 7 33 13 47
14 15 1 26 5 26 9 0 4 11 6 25 4 14 -1 25 1 25 4 0 4 11 8 25 9 18 1 25 -3 25
-16 0 -12 -3 -13 -8 -5 -6 9 -13 7 -26 -8 -20 -24 -16 -37 5 -17 8 8 21 13 29
13 8 -1 22 5 30 12 80 71 120 94 159 91 23 -1 41 -5 41 -10 0 -4 7 -5 15 -2
18 7 20 -7 3 -24 -9 -9 -5 -9 14 0 15 7 24 17 21 22 -4 5 -1 6 5 2 7 -4 10
-18 6 -34 -4 -19 -3 -23 4 -13 8 11 12 10 21 -6 5 -11 7 -24 3 -28 -4 -5 -1
-5 6 -1 7 4 12 2 12 -7 0 -7 13 -26 30 -40 31 -28 46 -35 34 -15 -4 7 -3 8 5
4 6 -4 9 -11 6 -16 -3 -4 2 -13 10 -20 11 -9 12 -17 4 -31 -5 -11 -7 -25 -3
-31 5 -8 2 -9 -9 -5 -10 3 -17 3 -17 -2 0 -5 -33 -9 -72 -10 -40 -1 -84 -4
-98 -8 -14 -3 -60 -7 -104 -9 -46 -1 -83 -8 -90 -15 -8 -9 -6 -10 9 -5 14 5
17 4 9 -4 -8 -8 -18 -7 -38 4 -27 14 -50 9 -146 -31 -8 -3 -18 -7 -22 -8 -5
-2 -11 -4 -15 -5 -5 -1 -57 -3 -118 -4 -103 -2 -164 -11 -260 -42 -23 -7 -41
-8 -43 -3 -2 5 -8 7 -13 3 -5 -3 -9 1 -10 8 0 7 -2 20 -4 29 -2 12 4 15 22 13
14 -1 22 0 20 3 -3 3 -2 15 2 27 6 14 4 25 -6 35 -19 17 -8 28 12 11 13 -11
14 -10 9 4 -4 10 -1 16 7 16 9 1 7 6 -5 15 -11 8 -16 15 -11 15 5 0 4 5 -3 12
-16 16 3 38 34 38 15 0 24 6 24 16 0 9 6 14 13 12 6 -3 12 -11 12 -19 0 -9 10
-14 28 -13 20 1 27 -3 23 -12 -3 -8 -1 -14 4 -14 16 0 11 -22 -7 -36 -16 -12
-16 -12 5 -7 12 3 25 9 28 14 3 5 10 9 15 9 6 0 7 -5 3 -11 -4 -6 1 -9 12 -7
11 1 19 -2 19 -7 0 -6 -3 -9 -6 -8 -3 1 -6 -5 -6 -13 0 -8 2 -12 5 -10 2 3 15
1 28 -4 15 -6 24 -6 24 0 0 9 32 6 49 -5 5 -3 12 -1 16 4 3 6 13 7 22 4 10 -4
14 -2 9 5 -4 6 1 11 11 10 102 -2 133 16 127 72 -2 16 1 41 6 55 11 30 8 31
-16 8 -17 -17 -43 -22 -114 -22 -84 1 -100 3 -88 11 10 6 9 8 -3 8 -23 0 -30
-11 -18 -29 6 -9 -6 2 -26 24 -21 22 -34 33 -29 25 4 -8 -9 1 -29 21 -45 43
-98 55 -137 30 -13 -9 -21 -11 -17 -4 4 6 2 13 -5 15 -12 4 -14 49 -5 98 4 21
1 25 -18 25 -13 0 -23 -2 -22 -5 1 -3 -8 -16 -20 -30 -13 -13 -23 -28 -23 -32
0 -5 -4 -7 -9 -4 -5 3 -11 -2 -13 -12 -3 -9 -18 -24 -34 -32 -26 -14 -59 -47
-58 -60 1 -14 -23 -25 -52 -24 -19 1 -34 -3 -34 -8 0 -6 11 -8 25 -6 35 7 31
-5 -5 -19 -23 -9 -29 -8 -23 0 3 7 -5 2 -19 -10 -25 -23 -44 -31 -33 -14 3 5
0 13 -6 17 -8 4 -9 3 -5 -4 4 -7 2 -12 -3 -12 -6 0 -11 5 -11 11 0 8 -5 8 -15
-1 -10 -9 -15 -9 -15 -1 0 6 -8 11 -18 11 -10 0 -24 9 -32 20 -8 11 -20 20
-26 20 -13 0 -45 79 -49 119 -1 15 -5 33 -9 39 -4 7 -4 17 0 24 4 7 7 31 7 55
-1 24 2 43 5 43 4 0 8 10 9 23 5 75 7 88 16 94 6 4 7 1 2 -7 -5 -8 -4 -11 3
-6 6 3 13 19 17 35 4 18 21 39 44 56 37 25 43 26 122 20 46 -4 99 -8 118 -9
46 -3 137 19 134 32 -2 7 7 8 27 2 29 -8 35 -3 31 22 0 4 6 5 13 2 8 -3 19 3
26 15 6 12 16 21 23 20 9 0 9 -2 0 -6 -7 -2 -13 -9 -13 -14 0 -6 5 -7 10 -4 6
3 13 -1 17 -11 6 -15 7 -14 15 5 4 12 12 19 18 16 5 -3 10 -2 10 4 0 5 -8 15
-17 20 -24 14 -7 14 18 1 13 -7 19 -7 19 0 0 5 -4 10 -10 10 -5 0 -10 5 -10
11 0 6 7 8 16 5 12 -5 15 -2 10 10 -4 10 1 22 11 30 11 8 13 13 6 14 -7 0 -13
5 -13 11 0 5 5 7 10 4 9 -6 12 12 12 80 0 14 -1 27 -2 30 -1 3 -3 8 -4 13 -2
11 -60 125 -71 140 -35 48 -135 141 -140 132 -5 -7 -12 -5 -20 7 -7 10 -16 15
-20 11 -4 -3 -21 0 -38 7 -18 7 -40 11 -49 10 -10 -2 -20 1 -24 6 -3 5 -26 9
-52 9 -58 1 -95 19 -82 40 5 8 9 24 9 35 -1 13 -4 9 -10 -11 -9 -33 -34 -51
-44 -34 -4 6 -3 16 2 23 4 6 8 18 10 26 1 8 8 18 15 22 7 5 9 9 3 9 -7 0 -7 3
0 8 22 16 45 74 38 99 -5 20 -3 25 8 21 10 -4 15 2 17 20 1 15 8 30 16 34 10
6 12 17 6 43 -4 20 -4 35 1 35 5 0 8 3 8 8 -3 19 2 33 11 27 6 -3 10 -1 10 4
0 6 -4 11 -9 11 -5 0 -9 13 -9 30 1 16 5 27 11 23 5 -3 4 5 -3 17 -8 16 -9 20
-1 15 7 -4 16 6 22 24 6 17 14 29 19 26 4 -3 10 5 13 16 4 16 11 19 29 14 19
-5 20 -4 6 5 -13 8 -23 8 -38 0 -13 -7 -20 -7 -20 0 0 5 7 10 15 10 22 0 68
48 59 62 -4 7 -3 8 5 4 6 -4 9 -12 6 -17 -4 -5 -1 -9 4 -9 6 0 11 5 11 11 0 5
5 7 10 4 6 -3 10 -1 10 4 0 6 6 11 14 11 8 0 18 5 22 12 5 7 2 8 -7 3 -8 -5
-11 -4 -6 0 15 17 50 15 63 -2 12 -17 13 -16 9 5 -2 12 1 22 7 22 5 0 8 -6 5
-14 -3 -8 2 -16 14 -19 19 -5 27 -27 9 -27 -5 0 -10 6 -10 13 0 9 -3 8 -9 -2
-6 -9 -11 -10 -15 -3 -8 13 -36 5 -36 -10 0 -6 7 -8 14 -5 10 4 13 1 9 -9 -3
-7 0 -14 6 -14 6 0 11 5 11 10 0 6 7 10 15 10 8 0 15 -6 15 -12 0 -10 2 -10 9
0 4 8 11 13 15 13 17 -2 24 1 44 19 12 11 38 24 59 29 21 5 30 9 21 10 -10 1
-18 5 -18 10 0 5 8 8 18 6 9 -2 20 -4 25 -4z m-53 -5 c0 -3 -4 -8 -10 -11 -5
-3 -10 -1 -10 4 0 6 5 11 10 11 6 0 10 -2 10 -4z m-385 -156 c-3 -5 -12 -10
-18 -10 -7 0 -6 4 3 10 19 12 23 12 15 0z m1022 -47 c-4 -3 1 -12 11 -20 15
-13 15 -13 -6 -3 -19 9 -23 30 -5 30 4 0 3 -3 0 -7z m73 -73 c0 -5 -2 -10 -4
-10 -3 0 -8 5 -11 10 -3 6 -1 10 4 10 6 0 11 -4 11 -10z m1704 -57 c-5 -5 -12
-12 -16 -18 -4 -6 -8 -2 -8 8 0 9 7 17 17 17 9 0 12 -3 7 -7z m-1631 -68 c-7
-21 -13 -19 -13 6 0 11 4 18 10 14 5 -3 7 -12 3 -20z m40 -35 c3 -14 1 -20 -6
-17 -7 2 -14 14 -15 26 -4 28 13 20 21 -9z m-1276 -12 c-3 -8 -6 -5 -6 6 -1
11 2 17 5 13 3 -3 4 -12 1 -19z m3110 -250 c-3 -8 -6 -5 -6 6 -1 11 2 17 5 13
3 -3 4 -12 1 -19z m-1693 -87 c3 -5 16 -7 29 -4 20 4 20 4 -3 -9 -14 -8 -26
-11 -28 -7 -2 5 -10 5 -18 2 -7 -3 -12 -8 -9 -12 2 -4 -2 -8 -10 -8 -14 0 -11
10 10 34 12 15 22 16 29 4z m-61 -18 c-7 -2 -21 -2 -30 0 -10 3 -4 5 12 5 17
0 24 -2 18 -5z m102 -13 c-3 -5 -10 -10 -16 -10 -5 0 -9 5 -9 10 0 6 7 10 16
10 8 0 12 -4 9 -10z m-1505 -93 c-4 -5 -19 -10 -33 -10 -14 -1 -23 -5 -20 -9
5 -9 -31 -11 -40 -2 -16 16 8 30 53 29 27 0 45 -4 40 -8z m-1265 -14 c-2 -10
-4 -20 -4 -22 -1 -3 -7 1 -13 7 -10 10 -10 15 2 22 19 12 19 13 15 -7z m2401
-97 c8 -33 0 -43 -32 -43 -36 0 -50 37 -20 54 32 18 45 16 52 -11z m-291 -26
c16 -17 16 -20 3 -15 -9 4 -19 13 -22 21 -7 19 -2 18 19 -6z m-385 -84 c0 -12
5 -27 12 -34 9 -9 9 -12 -1 -12 -7 0 -10 -4 -6 -9 3 -6 -3 -15 -14 -21 -14 -7
-22 -7 -27 2 -4 7 -3 8 4 4 12 -7 16 19 12 78 -1 18 2 26 9 22 6 -4 11 -17 11
-30z m620 26 c0 6 6 3 14 -7 11 -15 17 -17 28 -7 12 9 15 9 15 -2 0 -11 -29
-15 -47 -6 -3 1 -15 1 -27 0 -15 -1 -23 4 -23 15 0 13 4 14 20 5 15 -8 20 -8
20 2z m282 -12 c-2 -8 3 -10 13 -6 9 3 13 2 10 -4 -9 -14 -21 -12 -39 6 -9 8
-16 11 -16 5 0 -6 -10 -11 -22 -11 -23 1 -23 1 1 14 29 16 57 14 53 -4z
m-1214 -14 c2 -10 -1 -23 -7 -29 -16 -16 -44 14 -35 37 8 22 38 17 42 -8z
m1009 -8 c-3 -8 -6 -5 -6 6 -1 11 2 17 5 13 3 -3 4 -12 1 -19z m119 0 c2 -14
-2 -14 -30 0 -42 20 -42 20 -5 17 20 -1 33 -8 35 -17z m48 -6 c2 -4 -4 -9 -15
-9 -10 -1 -19 2 -19 8 0 11 27 12 34 1z m-932 -44 c16 16 29 15 22 -1 -5 -13
-49 -21 -65 -11 -5 3 -7 10 -3 15 4 6 11 5 20 -2 11 -9 18 -9 26 -1z m-176
-40 c4 -7 3 -8 -5 -4 -6 4 -14 0 -17 -8 -4 -10 -19 -16 -40 -16 -19 0 -34 -4
-34 -10 0 -11 -49 -14 -74 -4 -16 6 -23 34 -8 34 4 1 31 3 60 6 36 4 58 2 69
-8 10 -8 14 -8 10 -1 -4 7 0 13 10 16 10 3 19 5 20 6 1 0 5 -4 9 -11z m-1595
-13 c5 4 6 -1 3 -9 -7 -19 -34 -21 -34 -3 0 18 14 31 18 18 2 -6 8 -9 13 -6z
m-67 -232 c5 -11 2 -13 -10 -9 -8 3 -20 6 -25 6 -4 0 -6 6 -3 14 7 18 30 11
38 -11z m36 -38 c14 -16 10 -18 -14 -9 -9 3 -16 10 -16 15 0 14 16 11 30 -6z
m-15 -55 c-3 -5 1 -10 9 -10 9 0 16 -6 16 -13 0 -16 -20 -37 -36 -37 -18 0
-81 -64 -76 -78 2 -7 -3 -12 -11 -12 -9 0 -19 10 -23 22 -5 17 -1 26 17 37 13
8 42 34 64 57 41 43 51 52 40 34z m-165 -90 c0 -6 -6 -13 -14 -16 -11 -4 -11
-11 0 -44 14 -41 10 -70 -10 -70 -6 0 -4 -5 4 -10 9 -6 10 -10 3 -10 -21 0
-53 57 -53 93 0 26 6 40 22 51 26 18 48 21 48 6z m3020 -96 c0 -2 -9 -4 -20
-4 -11 0 -20 4 -20 9 0 5 9 7 20 4 11 -3 20 -7 20 -9z m80 -49 c0 -2 -6 -5
-13 -8 -8 -3 -14 1 -14 8 0 7 6 11 14 8 7 -3 13 -6 13 -8z m-3060 -5 c8 -5 11
-10 5 -10 -5 0 -17 5 -25 10 -8 5 -10 10 -5 10 6 0 17 -5 25 -10z m1530 -110
c0 -5 -7 -7 -15 -4 -8 4 -12 10 -9 15 6 11 24 2 24 -11z m930 -120 c0 -5 -5
-10 -11 -10 -5 0 -7 5 -4 10 3 6 8 10 11 10 2 0 4 -4 4 -10z m586 -42 c-2 -7
-8 -24 -13 -38 -6 -14 -7 -26 -2 -28 5 -2 7 -8 3 -13 -10 -16 -22 -9 -26 16
-3 15 -1 22 5 18 6 -4 8 0 4 10 -4 10 -2 16 5 14 7 -1 13 4 14 11 2 19 4 22 8
22 2 0 3 -6 2 -12z m-240 -115 c8 -32 -1 -51 -31 -65 -21 -9 -31 -9 -45 0 -17
10 -20 8 -28 -20 -12 -46 -40 -61 -77 -42 -26 14 -30 13 -39 -3 -6 -10 -11
-25 -11 -33 0 -8 -9 -16 -20 -18 -17 -3 -17 -1 -5 7 12 9 9 11 -13 11 -16 0
-37 5 -48 10 -15 8 -19 7 -19 -5 0 -8 5 -15 11 -15 6 0 9 -12 7 -27 -2 -23 -8
-29 -35 -31 -25 -2 -33 1 -33 12 0 25 -29 19 -39 -8 -17 -43 -71 -38 -71 7 0
10 -4 15 -10 12 -5 -3 -10 -19 -10 -36 0 -25 -4 -29 -28 -29 -21 0 -32 7 -40
25 -13 28 -32 34 -32 10 0 -17 -35 -20 -46 -4 -3 6 0 15 7 20 10 6 11 11 3 19
-8 8 -14 7 -24 -5 -8 -9 -29 -15 -56 -15 -37 0 -47 5 -66 30 -12 17 -27 30
-34 30 -6 0 -15 7 -18 16 -10 25 -7 84 4 84 6 0 10 7 10 16 0 8 5 12 10 9 6
-4 17 -2 25 5 9 8 15 8 20 0 4 -6 3 -9 -2 -8 -4 2 -8 -1 -8 -7 0 -5 4 -9 9 -7
5 2 6 -4 3 -12 -4 -9 -2 -18 3 -21 6 -4 10 6 10 20 0 36 23 56 62 54 18 -2 43
3 54 9 12 6 24 9 27 5 11 -10 140 -3 175 9 25 9 37 10 52 1 14 -10 19 -9 24 2
3 9 0 12 -10 8 -7 -3 -14 -1 -14 5 0 11 45 22 120 29 33 2 58 10 63 19 9 15
37 20 37 6 0 -5 10 -8 21 -8 21 1 28 -7 47 -54 l10 -25 7 30 c4 17 14 41 22
54 l16 24 23 -39 c14 -21 27 -49 30 -61z m43 35 c-22 -40 -37 -12 -22 41 l6
23 13 -23 c8 -16 9 -30 3 -41z m228 38 c0 -8 -6 -12 -15 -9 -11 5 -11 7 0 14
7 5 13 9 14 9 0 0 1 -6 1 -14z m84 -32 c1 -51 -5 -84 -14 -84 -6 0 -2 -9 7
-19 11 -12 14 -21 7 -26 -6 -3 -11 1 -11 9 0 19 -20 22 -20 4 0 -8 -4 -7 -10
3 -5 9 -8 26 -5 38 2 11 0 21 -6 21 -5 0 -9 5 -9 11 0 5 5 7 10 4 6 -3 10 3
10 13 0 11 7 22 15 26 8 3 15 11 14 18 0 10 -2 10 -6 1 -2 -7 -9 -13 -15 -13
-6 0 -5 6 2 15 15 18 31 7 31 -21z m-151 -39 c-5 -6 -7 -15 -3 -18 3 -4 1 -7
-6 -7 -7 0 -11 -6 -8 -13 3 -8 1 -20 -4 -28 -7 -12 -9 -12 -9 1 0 13 -1 13
-10 0 -17 -26 -11 -33 15 -16 28 18 39 21 30 6 -3 -5 -1 -19 6 -31 9 -17 13
-19 20 -8 7 11 9 10 9 -3 0 -10 -7 -18 -15 -18 -15 0 -17 -11 -19 -95 -1 -33
-5 -40 -25 -45 -14 -3 -26 -12 -29 -20 -3 -13 -2 -13 8 0 9 11 13 12 17 2 2
-6 10 -9 15 -6 7 4 8 2 4 -5 -4 -6 -11 -9 -15 -7 -4 3 -12 -4 -18 -14 -10 -15
-9 -17 10 -12 12 3 19 1 15 -3 -4 -4 0 -14 10 -21 16 -13 16 -13 -2 -14 -11 0
-16 -5 -13 -14 3 -7 0 -19 -6 -25 -8 -8 -8 -11 1 -11 11 0 16 13 13 33 0 4 3
7 9 7 5 0 10 -5 10 -10 0 -6 6 -9 13 -8 6 2 11 -4 9 -12 -1 -10 2 -9 13 4 8
11 15 15 15 9 0 -7 -8 -19 -17 -29 -17 -16 -18 -16 -21 -1 -2 9 -8 17 -13 17
-6 0 -8 -4 -4 -9 3 -5 0 -15 -7 -23 -22 -23 -41 -66 -34 -77 4 -6 1 -11 -6
-11 -10 0 -10 -2 0 -9 12 -7 12 -12 1 -30 -8 -11 -17 -21 -21 -21 -4 0 -10
-16 -14 -35 -5 -30 -10 -35 -26 -29 -14 4 -18 2 -14 -5 4 -6 0 -11 -9 -11 -8
0 -24 -15 -35 -32 -11 -18 -20 -29 -20 -24 0 5 -6 4 -13 -2 -7 -6 -23 -9 -34
-6 -22 6 -61 -14 -59 -30 0 -5 -10 -16 -24 -25 -14 -9 -21 -11 -16 -3 4 7 2
12 -8 12 -8 0 -18 -5 -22 -12 -5 -7 -3 -8 6 -3 8 5 11 3 8 -6 -3 -8 -11 -14
-19 -15 -22 -1 -48 26 -42 44 5 10 3 13 -6 8 -7 -5 -10 -14 -7 -21 3 -8 -4
-13 -17 -13 -12 0 -32 -3 -44 -7 -18 -6 -23 -3 -23 9 0 20 -7 20 -26 1 -9 -8
-27 -15 -40 -15 -14 0 -22 -4 -19 -10 10 -16 -7 -12 -27 7 -23 20 -23 5 -1
-27 l17 -24 -26 20 c-14 10 -24 22 -22 25 2 3 -8 5 -22 3 -19 -2 -24 1 -20 12
3 8 -1 14 -9 14 -8 0 -15 -6 -15 -14 0 -7 -6 -19 -14 -25 -11 -9 -15 -8 -20 5
-5 12 -2 15 9 10 9 -3 14 -2 11 3 -3 5 -15 11 -26 14 -17 4 -20 2 -15 -14 4
-11 2 -19 -4 -19 -6 0 -11 4 -11 9 0 6 -9 8 -19 6 -22 -4 -65 28 -53 39 4 4 2
7 -3 6 -28 -6 -44 1 -38 16 5 13 8 13 15 2 6 -8 7 -5 2 12 -4 14 -12 28 -18
32 -14 9 -15 27 -3 51 8 17 10 17 26 3 20 -18 41 -22 23 -4 -7 7 -12 16 -12
20 0 12 38 10 45 -2 4 -7 11 -7 18 -2 7 5 31 8 54 7 24 -1 40 2 37 7 -4 5 7 3
23 -5 19 -10 34 -12 45 -6 12 7 20 4 28 -8 10 -16 11 -15 6 5 -4 19 -1 23 17
21 12 -1 30 1 40 6 10 4 23 2 32 -5 20 -16 19 -6 -1 14 -14 15 -14 16 3 17 10
0 31 3 47 5 27 5 28 4 15 -13 -12 -16 -12 -17 2 -6 9 7 19 10 22 6 4 -3 7 -1
7 5 0 5 -6 12 -12 14 -10 4 -9 8 2 19 13 12 29 17 67 21 6 1 9 8 6 16 -5 11
-7 11 -14 0 -7 -10 -9 -9 -9 5 0 16 12 22 34 18 5 -1 6 5 3 12 -4 11 0 13 15
9 17 -4 20 -2 15 12 -4 10 -7 22 -7 27 0 6 -4 7 -10 4 -5 -3 -10 -4 -10 -1 0
17 22 14 28 -4 8 -21 9 -21 23 -4 12 16 12 17 -1 9 -13 -8 -13 -7 -1 8 17 21
35 22 27 2 -5 -13 -2 -14 17 -4 20 11 21 11 8 -4 -12 -15 -11 -17 2 -17 10 0
15 7 12 20 -2 11 1 20 6 20 6 0 8 4 4 9 -3 5 -1 12 4 15 5 4 12 -2 15 -11 4
-15 5 -15 3 1 -1 13 -10 20 -27 21 -32 3 -51 -5 -44 -16 3 -5 -3 -6 -12 -2
-15 5 -13 10 11 30 22 19 30 22 37 11 6 -9 8 -8 6 7 -2 12 2 19 10 17 8 -1 11
2 7 8 -4 7 -16 3 -32 -10 -14 -11 -32 -20 -40 -20 -8 0 -11 -5 -7 -12 5 -7 2
-9 -9 -5 -8 3 -28 2 -44 -4 -28 -9 -28 -9 5 -4 17 2 32 0 32 -5 0 -6 -8 -10
-18 -10 -10 0 -24 -6 -31 -12 -11 -10 -13 -10 -7 0 5 7 1 12 -9 12 -24 0 -12
23 16 31 13 4 20 7 16 8 -5 1 -5 6 -2 11 5 8 12 7 22 -2 14 -11 15 -10 9 9 -5
16 0 26 19 41 14 11 25 25 25 31 0 10 14 15 33 12 5 -1 6 2 4 6 -9 15 13 55
26 50 9 -3 13 2 12 16 -3 29 12 57 29 57 8 0 12 7 10 18 -6 24 74 108 89 93 8
-8 7 -11 -3 -11 -11 -1 -10 -4 4 -11 22 -13 36 3 31 33 -2 10 1 18 6 18 6 0 7
6 3 13 -5 8 -2 7 9 -2 12 -9 14 -17 7 -26z m70 26 c0 -10 -30 -25 -43 -22 -5
1 -6 -3 -2 -9 3 -5 -1 -10 -9 -10 -13 0 -14 3 -4 19 6 10 18 17 25 14 7 -3 13
0 13 6 0 6 5 11 10 11 6 0 10 -4 10 -9z m5 -41 c3 -5 1 -10 -4 -10 -6 0 -11 5
-11 10 0 6 2 10 4 10 3 0 8 -4 11 -10z m-25 -10 c0 -5 -4 -10 -10 -10 -5 0
-10 5 -10 10 0 6 5 10 10 10 6 0 10 -4 10 -10z m-22 -24 c3 -12 -1 -17 -10
-14 -7 3 -15 13 -16 22 -3 12 1 17 10 14 7 -3 15 -13 16 -22z m16 -21 c-4 -8
-13 -15 -22 -15 -13 0 -12 3 4 15 24 18 25 18 18 0z m-1250 -49 c-1 -9 3 -16
10 -17 6 0 2 -4 -9 -9 -19 -8 -19 -9 3 -9 20 -1 21 -4 12 -21 -9 -16 -8 -22 5
-26 9 -4 19 -4 22 0 4 3 1 6 -5 6 -7 0 -12 4 -12 9 0 14 27 7 49 -13 10 -9 25
-32 32 -49 7 -18 21 -43 31 -56 25 -32 24 -57 0 -33 -11 9 -17 20 -15 24 2 4
-1 9 -7 13 -5 3 -10 14 -10 24 0 10 -9 26 -20 36 -23 21 -60 30 -60 15 0 -6 7
-10 16 -10 14 0 14 -3 4 -15 -16 -19 -30 -19 -30 -1 0 8 -5 16 -12 18 -6 2
-12 15 -14 29 -1 13 -3 25 -3 27 -1 1 0 3 1 5 1 1 -4 13 -11 26 -7 13 -8 21
-3 17 6 -4 8 2 5 15 -4 16 -2 20 8 17 8 -3 13 -13 13 -22z m1300 16 c2 -4 -5
-14 -17 -22 -19 -12 -21 -11 -10 2 7 8 10 18 6 21 -3 4 -1 7 5 7 6 0 13 -4 16
-8z m26 -22 c0 -5 -5 -10 -11 -10 -5 0 -7 5 -4 10 3 6 8 10 11 10 2 0 4 -4 4
-10z m-12 -25 c-2 -1 -13 -8 -26 -14 -18 -9 -22 -9 -20 1 4 18 19 27 35 21 8
-3 13 -7 11 -8z m-405 -45 c3 -13 0 -17 -9 -13 -8 3 -11 10 -8 17 3 6 -7 -3
-23 -20 -26 -28 -88 -64 -119 -68 -8 -1 -20 -9 -26 -18 -18 -22 -53 -31 -65
-16 -8 12 -9 21 -4 46 1 4 8 -2 16 -12 15 -19 15 -19 15 2 0 16 4 20 17 15 11
-5 14 -3 8 6 -6 10 -3 11 14 2 17 -10 21 -9 21 3 0 8 4 18 10 21 6 4 7 -1 4
-12 -4 -12 4 -8 22 12 16 16 28 34 26 40 -2 5 0 7 4 3 4 -4 14 -2 22 5 9 6 13
7 9 1 -3 -6 0 -11 7 -11 8 0 12 6 9 12 -3 8 4 11 21 8 13 -3 26 -13 29 -23z
m-27 -37 c-10 -10 -19 5 -10 18 6 11 8 11 12 0 2 -7 1 -15 -2 -18z m420 -23
c0 -12 -4 -16 -9 -11 -5 5 -6 14 -3 20 10 15 12 14 12 -9z m-26 -14 c0 -2 -6
-6 -14 -9 -8 -3 -16 2 -19 14 -4 16 -2 17 14 8 10 -5 19 -11 19 -13z m-985
-10 c6 -2 20 -7 32 -11 13 -4 21 -11 18 -15 -3 -4 2 -10 10 -14 8 -3 14 0 12
7 -1 7 12 13 33 14 95 4 140 9 140 14 0 4 11 7 25 7 14 0 25 -5 25 -10 0 -6 8
-4 17 3 15 12 16 12 10 -5 -6 -16 -5 -17 8 -6 13 10 15 9 15 -8 0 -15 -5 -20
-15 -16 -8 4 -15 2 -15 -4 0 -6 6 -12 13 -15 6 -3 2 -4 -10 -4 -12 1 -19 5
-17 9 3 4 0 8 -5 8 -6 0 -11 -4 -11 -9 0 -12 -59 -20 -66 -9 -3 4 -10 8 -15 8
-6 0 -7 -4 -4 -10 3 -5 -1 -10 -9 -10 -9 0 -16 -6 -16 -12 0 -9 -4 -8 -10 2
-5 8 -10 10 -10 3 0 -8 -6 -8 -24 0 -13 7 -22 15 -20 19 2 3 -1 10 -7 14 -8 4
-9 3 -5 -4 4 -7 -3 -11 -23 -9 -16 1 -27 5 -25 8 4 8 -45 23 -63 20 -7 -1 -25
5 -40 13 -16 8 -22 15 -15 16 7 0 10 5 6 11 -6 11 27 8 61 -5z m-245 -6 c0 -5
-2 -10 -4 -10 -3 0 -8 5 -11 10 -3 6 -1 10 4 10 6 0 11 -4 11 -10z m57 -27
c-4 -3 5 -21 19 -40 14 -18 20 -33 15 -33 -6 0 -11 5 -11 10 0 15 -30 12 -31
-2 0 -7 -4 -2 -10 10 -5 13 -6 29 -2 35 4 7 -1 6 -10 -2 -9 -7 -17 -11 -17 -8
0 3 -3 12 -6 21 -5 13 1 16 27 16 18 0 29 -3 26 -7z m1193 -14 c0 -5 -4 -7
-10 -4 -5 3 -10 1 -10 -4 0 -6 -7 -11 -15 -11 -21 0 -19 18 3 23 29 8 32 7 32
-4z m-977 -13 c4 -10 1 -13 -9 -9 -7 3 -14 9 -14 14 0 14 17 10 23 -5z m-2247
-44 c1 -17 -4 -22 -22 -22 -17 0 -24 6 -24 19 0 36 44 38 46 3z m2897 -17 c-3
-9 -8 -14 -10 -11 -3 3 -2 9 2 15 9 16 15 13 8 -4z m-802 -17 c12 -23 12 -23
-9 -5 -12 11 -26 16 -33 11 -8 -4 -10 -3 -5 4 12 19 34 14 47 -10z m684 -20
c5 4 5 1 1 -6 -6 -10 -11 -10 -22 -1 -8 6 -14 14 -14 16 0 3 6 0 13 -6 8 -6
18 -7 22 -3z m-654 -45 c13 -16 12 -17 -3 -4 -17 13 -22 21 -14 21 2 0 10 -8
17 -17z m999 -28 c-7 -9 -15 -13 -18 -10 -3 2 1 11 8 20 7 9 15 13 18 10 3 -2
-1 -11 -8 -20z m-3142 3 c-3 -7 -13 -13 -23 -13 -10 0 -20 6 -22 13 -3 7 5 12
22 12 17 0 25 -5 23 -12z m2202 -3 c0 -1 -12 -2 -26 -2 -17 0 -22 2 -13 7 10
7 39 3 39 -5z m940 -35 c0 -5 -2 -10 -4 -10 -3 0 -8 5 -11 10 -3 6 -1 10 4 10
6 0 11 -4 11 -10z m-447 -15 c-3 -9 -8 -14 -10 -11 -3 3 -2 9 2 15 9 16 15 13
8 -4z m-2605 -57 c-2 -18 -7 -33 -13 -33 -5 0 -11 15 -13 33 -3 24 1 32 13 32
12 0 16 -8 13 -32z m-58 0 c0 -16 -3 -19 -11 -11 -6 6 -8 16 -5 22 11 17 16
13 16 -11z m2210 -49 c-5 -9 -7 -19 -4 -22 3 -3 1 -8 -5 -12 -6 -3 -11 -3 -12
2 0 4 -2 16 -4 26 -2 9 1 17 6 17 5 0 8 3 8 8 -3 19 2 26 10 13 6 -9 6 -22 1
-32z m-2110 8 c0 -23 -17 -47 -32 -47 -10 0 -11 54 -1 63 14 15 33 6 33 -16z
m-178 -98 c2 -6 12 -7 28 -1 30 11 80 -4 80 -24 0 -8 -7 -28 -15 -45 -14 -26
-18 -28 -38 -18 -36 19 -77 61 -77 81 0 19 16 25 22 7z m2980 -21 c-14 -14
-54 -19 -46 -6 4 5 12 7 20 4 8 -3 17 1 21 10 3 8 8 12 11 9 3 -3 0 -11 -6
-17z m-2737 -12 c14 -21 14 -27 -4 -68 -21 -50 -41 -63 -65 -45 -29 21 -28 73
2 107 32 36 47 38 67 6z m2525 -41 c0 -8 -2 -15 -4 -15 -2 0 -6 7 -10 15 -3 8
-1 15 4 15 6 0 10 -7 10 -15z m-2700 -66 c0 -30 -17 -31 -28 0 -6 16 -8 32 -5
35 10 10 33 -15 33 -35z m310 -278 c0 -25 -11 -32 -38 -24 -18 4 -19 8 -9 24
16 25 47 25 47 0z m4530 -568 c-1 -27 -1 -27 -15 -9 -14 19 -12 36 6 36 5 0 9
-12 9 -27z"/>
<path d="M2080 4060 c0 -5 7 -10 16 -10 8 0 12 5 9 10 -3 6 -10 10 -16 10 -5
0 -9 -4 -9 -10z"/>
<path d="M2570 3991 c0 -6 4 -13 10 -16 6 -3 7 1 4 9 -7 18 -14 21 -14 7z"/>
<path d="M2631 3964 c0 -11 3 -14 6 -6 3 7 2 16 -1 19 -3 4 -6 -2 -5 -13z"/>
<path d="M2610 3936 c0 -2 8 -10 18 -17 15 -13 16 -12 3 4 -13 16 -21 21 -21
13z"/>
<path d="M2681 3874 c0 -11 3 -14 6 -6 3 7 2 16 -1 19 -3 4 -6 -2 -5 -13z"/>
<path d="M2788 3863 c6 -2 18 -2 25 0 6 3 1 5 -13 5 -14 0 -19 -2 -12 -5z"/>
<path d="M2890 3786 c0 -2 8 -10 18 -17 15 -13 16 -12 3 4 -13 16 -21 21 -21
13z"/>
<path d="M2955 3700 c-3 -5 -1 -10 4 -10 6 0 11 5 11 10 0 6 -2 10 -4 10 -3 0
-8 -4 -11 -10z"/>
<path d="M3009 3693 c-13 -16 -12 -17 4 -4 9 7 17 15 17 17 0 8 -8 3 -21 -13z"/>
<path d="M2570 3350 c0 -5 7 -7 15 -4 8 4 15 8 15 10 0 2 -7 4 -15 4 -8 0 -15
-4 -15 -10z"/>
<path d="M2255 3280 c-4 -6 -3 -16 3 -22 6 -6 12 -6 17 2 4 6 3 16 -3 22 -6 6
-12 6 -17 -2z"/>
<path d="M2205 2749 c-4 -6 -5 -12 -2 -15 2 -3 7 2 10 11 7 17 1 20 -8 4z"/>
<path d="M3230 2429 c0 -5 5 -7 10 -4 6 3 10 8 10 11 0 2 -4 4 -10 4 -5 0 -10
-5 -10 -11z"/>
<path d="M3377 2379 c7 -7 15 -10 18 -7 3 3 -2 9 -12 12 -14 6 -15 5 -6 -5z"/>
<path d="M3275 2330 c3 -5 14 -10 23 -10 15 0 15 2 2 10 -20 13 -33 13 -25 0z"/>
<path d="M2105 2180 c-3 -5 -2 -10 4 -10 5 0 13 5 16 10 3 6 2 10 -4 10 -5 0
-13 -4 -16 -10z"/>
<path d="M3060 2165 c0 -2 6 -8 13 -14 10 -8 14 -7 14 2 0 8 -6 14 -14 14 -7
0 -13 -1 -13 -2z"/>
<path d="M2115 2061 c-3 -5 -2 -12 3 -15 5 -3 9 1 9 9 0 17 -3 19 -12 6z"/>
<path d="M2115 2020 c-3 -5 -1 -10 4 -10 6 0 11 5 11 10 0 6 -2 10 -4 10 -3 0
-8 -4 -11 -10z"/>
<path d="M2510 1823 c0 -4 5 -15 10 -23 8 -13 10 -13 10 2 0 9 -4 20 -10 23
-5 3 -10 3 -10 -2z"/>
<path d="M3217 1720 c3 -11 7 -20 9 -20 2 0 4 9 4 20 0 11 -4 20 -9 20 -5 0
-7 -9 -4 -20z"/>
<path d="M3092 1674 c-7 -8 -8 -14 -3 -14 10 0 25 19 20 25 -2 1 -10 -3 -17
-11z"/>
<path d="M3125 1670 c3 -5 8 -10 11 -10 2 0 4 5 4 10 0 6 -5 10 -11 10 -5 0
-7 -4 -4 -10z"/>
<path d="M3072 1633 c0 -10 -1 -23 -3 -29 -2 -7 1 -12 6 -12 6 -1 9 6 7 14 -2
8 4 17 13 21 13 5 14 7 3 14 -20 13 -27 11 -26 -8z"/>
<path d="M3035 1610 c-3 -5 -1 -10 4 -10 6 0 11 5 11 10 0 6 -2 10 -4 10 -3 0
-8 -4 -11 -10z"/>
<path d="M3151 1594 c0 -11 3 -14 6 -6 3 7 2 16 -1 19 -3 4 -6 -2 -5 -13z"/>
<path d="M2950 1570 c0 -5 7 -7 15 -4 8 4 15 8 15 10 0 2 -7 4 -15 4 -8 0 -15
-4 -15 -10z"/>
<path d="M2835 1320 c3 -5 8 -10 11 -10 2 0 4 5 4 10 0 6 -5 10 -11 10 -5 0
-7 -4 -4 -10z"/>
<path d="M3047 1244 c-10 -11 -8 -44 2 -44 6 0 13 4 16 10 8 12 -9 43 -18 34z"/>
<path d="M2900 1128 c0 -4 4 -8 9 -8 6 0 12 4 15 8 3 5 -1 9 -9 9 -8 0 -15 -4
-15 -9z"/>
<path d="M243 3465 c3 -19 -2 -31 -20 -45 l-24 -19 21 -11 c12 -6 24 -9 28 -6
11 12 11 106 0 106 -6 0 -8 -11 -5 -25z"/>
<path d="M350 3109 c0 -5 5 -7 10 -4 6 3 10 8 10 11 0 2 -4 4 -10 4 -5 0 -10
-5 -10 -11z"/>
<path d="M326 2994 c-10 -25 -7 -44 7 -44 6 0 12 13 13 30 1 32 -10 40 -20 14z"/>
<path d="M3 2312 c1 -14 5 -18 11 -12 7 7 6 14 -1 21 -9 9 -12 7 -10 -9z"/>
<path d="M91 1743 c0 -4 4 -17 8 -27 6 -15 9 -16 13 -5 3 8 -1 20 -8 27 -8 7
-14 9 -13 5z"/>
<path d="M0 1705 c0 -16 3 -24 7 -19 5 5 12 11 16 15 4 3 1 12 -8 19 -13 11
-15 9 -15 -15z"/>
<path d="M1950 60 c0 -5 5 -10 10 -10 6 0 10 5 10 10 0 6 -4 10 -10 10 -5 0
-10 -4 -10 -10z"/>
</g>
</svg>
